<svg width="200" height="200" xmlns="http://www.w3.org/2000/svg">
 <style>tspan { white-space:pre }.shp0 { fill: #ee3840 } .shp1 { fill: #ffffff }</style>

 <g>
  <title>Layer 1</title>
  <path stroke="null" class="shp1" d="m55.64528,120.15256l0,-17.41793c12.50604,-6.34011 24.33282,-10.0153 35.4803,-11.02551l0,18.07978c-11.02556,0.88831 -22.85231,4.33707 -35.4803,10.36366l0,0zm0,-38.61555l0,-17.80107c13.06343,-7.42005 24.89018,-11.37389 35.4803,-11.87903l0,18.56751c-10.41589,0.43544 -22.24271,4.14542 -35.4803,11.11259l0,0zm85.27809,41.15855c-3.01331,0 -5.8176,-0.52257 -8.39542,-1.58505l0,-17.71404c-1.23666,-0.38319 -2.43848,-0.85345 -3.6055,-1.41084c-6.60141,-3.34424 -12.68027,-5.90471 -18.25399,-7.73357c-5.57374,-1.81145 -11.49581,-2.73459 -17.78368,-2.73459l-1.7592,0l0,-20.91893c1.60242,-0.17416 3.1178,-0.27867 4.52865,-0.27867c1.35862,0 2.71719,0.06966 4.05837,0.19159c1.35863,0.1219 2.57784,0.24387 3.65777,0.38318c1.07991,0.12197 2.29916,0.34839 3.65775,0.69673c1.34119,0.34833 2.42112,0.60961 3.22232,0.80121c0.80122,0.1916 1.91599,0.59224 3.3268,1.1844c1.4109,0.59224 2.42109,1.01028 3.01331,1.21928c0.57479,0.22645 1.63726,0.71415 3.18749,1.4631c1.53275,0.74895 2.50812,1.21928 2.90878,1.41087c0.40061,0.19157 1.46312,0.73158 3.18747,1.60248c1.72437,0.88828 2.73463,1.41085 3.04816,1.60242c1.16699,0.55736 2.36884,1.04506 3.6055,1.41084l0,21.11053c9.17923,2.82172 21.006,0.59219 35.48029,-6.68848l0,17.33081c-10.65977,5.78276 -19.68222,8.65672 -27.08485,8.65672l0,0l-0.00002,0zm-8.39542,-40.40959l0,-18.46295c2.02046,0.50511 4.42413,0.74897 7.211,0.74897c8.43027,0 17.85335,-2.85654 28.26926,-8.56961l0,17.80111c-14.54393,8.29089 -26.37068,11.13002 -35.48027,8.48248l0,0l0.00002,0zm-92.17558,-51.10412c-2.31659,-2.35143 -5.10345,-3.53584 -8.36061,-3.53584c-3.27456,0 -6.06144,1.18442 -8.3606,3.53584c-2.31657,2.35141 -3.46616,5.19053 -3.46616,8.51735c0,2.21208 0.53995,4.21512 1.61987,6.04401c1.06249,1.81145 2.50818,3.25714 4.28482,4.31963l0,119.27788c0,0.8709 0.27868,1.60245 0.83606,2.15984c0.55737,0.57478 1.25407,0.85345 2.12497,0.85345l5.9221,0c0.85347,0 1.56762,-0.27867 2.12499,-0.85345c0.53992,-0.55739 0.81863,-1.28894 0.81863,-2.15984l0,-119.27788c1.79404,-1.06249 3.22233,-2.50819 4.30221,-4.31963c1.0799,-1.82889 1.61987,-3.83195 1.61987,-6.04401c0,-3.32682 -1.16698,-6.16593 -3.46614,-8.51735zm136.60869,9.37081c-1.89856,-1.13214 -3.81451,-1.18439 -5.71309,-0.1916c-0.55736,0.31355 -1.51538,0.8535 -2.87393,1.60246c-11.58292,7.03684 -21.12791,10.55527 -28.63509,10.55527c-3.15262,0 -5.88724,-0.5922 -8.23863,-1.79404c-6.89754,-3.44876 -13.32472,-6.14853 -19.29905,-8.09931c-5.97437,-1.95081 -12.41896,-2.92622 -19.31647,-2.92622c-4.49381,0 -9.28374,0.60961 -14.31751,1.79404c-5.06865,1.20181 -9.75405,2.75204 -14.09111,4.66798c-4.35448,1.91601 -7.85547,3.55329 -10.53782,4.89445c-2.68239,1.3586 -5.10347,2.68237 -7.26329,4.00612c-1.89854,1.2541 -2.85655,2.97848 -2.85655,5.17313l0,69.91549c0,2.31659 0.97542,4.07578 2.96105,5.27763c0.97542,0.50513 1.96821,0.74898 2.94362,0.74898c1.11476,0 2.125,-0.27867 3.04813,-0.85352c5.85241,-3.64034 12.88929,-6.8452 21.12793,-9.59725c8.22125,-2.76942 15.46709,-4.14545 21.75498,-4.14545c3.57067,0 7.08907,0.43544 10.53785,1.30635c3.44872,0.88827 6.25298,1.79403 8.41284,2.73462c2.14236,0.94054 5.19052,2.45593 9.14435,4.52864l2.57789,1.30638c4.31965,2.21204 9.17925,3.30939 14.59621,3.30939c9.30116,0 20.67508,-3.64037 34.10428,-10.93848c0.43546,-0.24385 0.95798,-0.52251 1.56761,-0.83604c2.15984,-1.13216 3.23973,-2.92619 3.23973,-5.38213l0,-71.86632c0,-2.21208 -0.95799,-3.93644 -2.87393,-5.19054l0,0l0,-0.00004z" id="svg_3"/>
 </g>
</svg>