<svg width="200" height="200" xmlns="http://www.w3.org/2000/svg">
 <style>tspan { white-space:pre }.shp0 { fill: #44c944 } .shp1 { fill: #ffffff }</style>

 <g>
  <title>Layer 1</title>
  <g stroke="null" id="svg_3">
   <path stroke="null" class="shp1" d="m155.50304,28.09806c-13.47646,3.65514 -30.72688,26.23968 -34.75346,45.43656c-0.59435,3.07564 -0.59435,3.61055 0.35658,4.60602c1.29268,1.48583 12.82266,9.10812 17.96364,11.94605c6.61192,3.65514 6.49306,3.59569 10.75739,0.87665c10.46019,-6.79023 19.19685,-18.66198 22.33192,-30.37027c1.42641,-5.37868 1.64928,-14.23421 0.53491,-18.84026c-1.70869,-7.10224 -5.91359,-12.5998 -10.40079,-13.83303c-2.71906,-0.77262 -3.31337,-0.77262 -6.79019,0.1783l0,-0.00002z" id="svg_4"/>
   <path stroke="null" class="shp1" d="m67.63132,61.60342c-3.78886,0.71318 -9.62816,3.65513 -13.59529,6.73079c-8.91496,6.9685 -15.36344,19.03341 -17.25043,32.15324c-0.7132,4.90322 -0.47547,14.05592 0.3566,15.42286c1.1738,1.88702 23.46116,10.62364 27.11632,10.62364c3.72942,0 13.00098,-14.59076 16.90869,-26.64084c5.25982,-16.01717 4.60604,-30.54856 -1.54527,-35.98668c-3.13509,-2.71904 -6.55247,-3.37281 -11.9906,-2.30302l-0.00002,0z" id="svg_5"/>
   <path stroke="null" class="shp1" d="m105.32671,96.22314c-7.85999,8.51378 -10.87623,18.91458 -7.56285,26.18025c4.78433,10.63851 15.60117,10.57906 26.83403,-0.11888c4.84375,-4.54662 9.15266,-9.86591 9.15266,-11.218c0,-1.1292 -5.73529,-6.56735 -10.63851,-10.05901c-5.02209,-3.53626 -12.40664,-7.56285 -13.93703,-7.56285c-0.7726,0 -2.30302,1.12924 -3.84828,2.77849l-0.00002,0z" id="svg_6"/>
   <path stroke="null" class="shp1" d="m30.21824,136.81589c-0.52003,0.47549 -1.35209,2.71906 -1.88699,4.91809c-4.54663,18.60251 0.05944,30.90515 11.47057,30.90515c8.38007,0 16.24006,-8.21661 19.13743,-20.16263c1.42641,-5.72043 1.30753,-6.84967 -0.93607,-8.20174c-4.26431,-2.60019 -17.84474,-7.16167 -23.87719,-7.97888c-2.30303,-0.29716 -3.25396,-0.17833 -3.90773,0.52l-0.00001,0z" id="svg_7"/>
  </g>
 </g>
</svg>